# xmcd CD database file
#
# Track frame offsets:
#	150
#	1686
#	24366
#	50077
#	73857
#	103754
#	136943
#	139677
#	163848
#	191976
#	216100
#	234774
#	269705
#
# Disc length: 3903 seconds
#
# Revision: 1
# Processed by: cddbd v1.5.2PL0 Copyright (c) Steve Scherf et al.
# Submitted via: CDex 1.51
#
DISCID=bc0f3d0d
DTITLE=Pura Fe - A Blues's Night In North Carolina
DYEAR=2011
DGENRE=Blues
TTITLE0=Intro
TTITLE1=Red, Black On Blues
TTITLE2=If I Was Your Guitar
TTITLE3=Let Heaven Show
TTITLE4=Borders
TTITLE5=Della Blackman
TTITLE6=EddieTthe Burro
TTITLE7=Woman Sacred
TTITLE8=Flight Tonight
TTITLE9=My Angel
TTITLE10=Ole Mid Life Crisis
TTITLE11=Peace
TTITLE12=Sea Of Love
EXTD=YEAR: 2011
EXTT0=
EXTT1=
EXTT2=
EXTT3=
EXTT4=
EXTT5=
EXTT6=
EXTT7=
EXTT8=
EXTT9=
EXTT10=
EXTT11=
EXTT12=
PLAYORDER=
